<svg width="20" height="12" viewBox="0 0 20 12" fill="none" xmlns="http://www.w3.org/2000/svg">
<path d="M11.2812 5.85626C11.2812 8.99852 8.75578 11.5458 5.6407 11.5458C2.52561 11.5458 0 8.99794 0 5.85626C0 2.71457 2.52542 0.166504 5.6407 0.166504C8.75598 0.166504 11.2812 2.71399 11.2812 5.85626Z" fill="#B1B5C4"/>
<path d="M17.4685 5.85662C17.4685 8.81439 16.2058 11.2131 14.6482 11.2131C13.0905 11.2131 11.8278 8.81439 11.8278 5.85662C11.8278 2.89886 13.0903 0.500163 14.648 0.500163C16.2056 0.500163 17.4685 2.89809 17.4685 5.85662Z" fill="#B1B5C4"/>
<path d="M19.9996 5.85697C19.9996 8.50641 19.5556 10.6555 19.0077 10.6555C18.4598 10.6555 18.016 8.50698 18.016 5.85697C18.016 3.20697 18.46 1.05843 19.0077 1.05843C19.5554 1.05843 19.9996 3.20677 19.9996 5.85697Z" fill="#B1B5C4"/>
</svg>
