<svg width="18" height="20" viewBox="0 0 18 20" fill="none" xmlns="http://www.w3.org/2000/svg">
<path d="M7.1896 8.3903C6.6196 8.3903 6.1696 8.8903 6.1696 9.5003C6.1696 10.1103 6.6296 10.6103 7.1896 10.6103C7.7596 10.6103 8.2096 10.1103 8.2096 9.5003C8.2196 8.8903 7.7596 8.3903 7.1896 8.3903ZM10.8396 8.3903C10.2696 8.3903 9.8196 8.8903 9.8196 9.5003C9.8196 10.1103 10.2796 10.6103 10.8396 10.6103C11.4096 10.6103 11.8596 10.1103 11.8596 9.5003C11.8596 8.8903 11.4096 8.3903 10.8396 8.3903Z" fill="#B1B5C4"/>
<path d="M15.7 0H2.3C1.17 0 0.25 0.92 0.25 2.06V15.58C0.25 16.72 1.17 17.64 2.3 17.64H13.64L13.11 15.79L14.39 16.98L15.6 18.1L17.75 20V2.06C17.75 0.92 16.83 0 15.7 0ZM11.84 13.06C11.84 13.06 11.48 12.63 11.18 12.25C12.49 11.88 12.99 11.06 12.99 11.06C12.58 11.33 12.19 11.52 11.84 11.65C11.34 11.86 10.86 12 10.39 12.08C9.43 12.26 8.55 12.21 7.8 12.07C7.23 11.96 6.74 11.8 6.33 11.64C6.1 11.55 5.85 11.44 5.6 11.3C5.57 11.28 5.54 11.27 5.51 11.25C5.49 11.24 5.48 11.23 5.47 11.22C5.29 11.12 5.19 11.05 5.19 11.05C5.19 11.05 5.67 11.85 6.94 12.23C6.64 12.61 6.27 13.06 6.27 13.06C4.06 12.99 3.22 11.54 3.22 11.54C3.22 8.32 4.66 5.71 4.66 5.71C6.1 4.63 7.47 4.66 7.47 4.66L7.57 4.78C5.77 5.3 4.94 6.09 4.94 6.09C4.94 6.09 5.16 5.97 5.53 5.8C6.6 5.33 7.45 5.2 7.8 5.17C7.86 5.16 7.91 5.15 7.97 5.15C8.58 5.07 9.27 5.05 9.99 5.13C10.94 5.24 11.96 5.52 13 6.09C13 6.09 12.21 5.34 10.51 4.82L10.65 4.66C10.65 4.66 12.02 4.63 13.46 5.71C13.46 5.71 14.9 8.32 14.9 11.54C14.9 11.54 14.05 12.99 11.84 13.06Z" fill="#B1B5C4"/>
</svg>
