<svg width="20" height="17" viewBox="0 0 20 17" fill="none" xmlns="http://www.w3.org/2000/svg">
<path d="M6.2918 16.9171C13.8371 16.9171 17.9652 10.6644 17.9652 5.24366C17.9652 5.06788 17.9613 4.8882 17.9535 4.71241C18.7566 4.13167 19.4496 3.41233 20 2.5882C19.2521 2.92095 18.458 3.13827 17.6449 3.23273C18.5011 2.71954 19.1421 1.91334 19.4492 0.963587C18.6438 1.44091 17.763 1.77762 16.8445 1.95929C16.2257 1.30175 15.4075 0.866378 14.5164 0.72049C13.6253 0.574602 12.711 0.726323 11.9148 1.15219C11.1186 1.57807 10.4848 2.25437 10.1115 3.07654C9.73825 3.89871 9.64619 4.82096 9.84961 5.7007C8.21874 5.61886 6.62328 5.1952 5.16665 4.4572C3.71002 3.71919 2.42474 2.68331 1.39414 1.41671C0.870333 2.31982 0.710047 3.38849 0.945859 4.40552C1.18167 5.42256 1.79589 6.31165 2.66367 6.8921C2.01219 6.87142 1.37498 6.69601 0.804688 6.38038V6.43116C0.804104 7.37891 1.13175 8.2976 1.73192 9.03109C2.3321 9.76458 3.16777 10.2676 4.09687 10.4546C3.49338 10.6197 2.85999 10.6438 2.2457 10.5249C2.50788 11.34 3.01798 12.0529 3.70481 12.5641C4.39164 13.0753 5.22093 13.3593 6.07695 13.3765C4.62369 14.518 2.82848 15.1372 0.980469 15.1343C0.652739 15.1338 0.325333 15.1137 0 15.0741C1.87738 16.2786 4.06128 16.9183 6.2918 16.9171Z" fill="#B1B5C4"/>
</svg>
